<svg xmlns="http://www.w3.org/2000/svg" xmlns:xlink="http://www.w3.org/1999/xlink" width="500" zoomAndPan="magnify" viewBox="0 0 375 374.999991" height="500" preserveAspectRatio="xMidYMid meet" version="1.0"><defs><clipPath id="119f43589a"><path d="M 160 113 L 268 113 L 268 220 L 160 220 Z M 160 113 " clip-rule="nonzero"/></clipPath><clipPath id="18a63c7250"><path d="M 160.960938 113.476562 L 267.183594 113.066406 L 267.597656 219.289062 L 161.371094 219.703125 Z M 160.960938 113.476562 " clip-rule="nonzero"/></clipPath><clipPath id="3f92719184"><path d="M 160.8125 113.328125 L 267.308594 112.917969 L 267.722656 219.414062 L 161.222656 219.828125 Z M 160.8125 113.328125 " clip-rule="nonzero"/></clipPath><clipPath id="a365758e3e"><path d="M 160.058594 112.582031 L 268.058594 112.164062 L 268.472656 220.164062 L 160.476562 220.578125 Z M 160.058594 112.582031 " clip-rule="nonzero"/></clipPath><clipPath id="b39a18a31d"><path d="M 160 112 L 269 112 L 269 221 L 160 221 Z M 160 112 " clip-rule="nonzero"/></clipPath><clipPath id="ba4be8091f"><path d="M 160.058594 112.582031 L 268.058594 112.164062 L 268.472656 220.164062 L 160.476562 220.578125 Z M 160.058594 112.582031 " clip-rule="nonzero"/></clipPath><clipPath id="fe8b67d31c"><path d="M 160.058594 112.582031 L 268.082031 112.164062 L 268.496094 220.1875 L 160.476562 220.601562 Z M 160.058594 112.582031 " clip-rule="nonzero"/></clipPath><clipPath id="3ff3da69db"><path d="M 115 158 L 222 158 L 222 265 L 115 265 Z M 115 158 " clip-rule="nonzero"/></clipPath><clipPath id="44f02d3257"><path d="M 115.875 158.914062 L 221.105469 158.507812 L 221.511719 263.742188 L 116.28125 264.148438 Z M 115.875 158.914062 " clip-rule="nonzero"/></clipPath><clipPath id="5dcb8bddb3"><path d="M 114.96875 158.019531 L 222.21875 157.605469 L 222.632812 264.851562 L 115.382812 265.269531 Z M 114.96875 158.019531 " clip-rule="nonzero"/></clipPath><clipPath id="02b0c7c9c4"><path d="M 114 157 L 223 157 L 223 266 L 114 266 Z M 114 157 " clip-rule="nonzero"/></clipPath><clipPath id="d363ebb8e8"><path d="M 114.96875 158.019531 L 222.21875 157.605469 L 222.632812 264.851562 L 115.382812 265.269531 Z M 114.96875 158.019531 " clip-rule="nonzero"/></clipPath><clipPath id="a94adf03db"><path d="M 114.96875 158.019531 L 221.996094 157.605469 L 222.410156 264.632812 L 115.382812 265.046875 Z M 114.96875 158.019531 " clip-rule="nonzero"/></clipPath></defs><rect x="-37.5" width="450" fill="#ffffff" y="-37.499999" height="449.999989" fill-opacity="1"/><rect x="-37.5" width="450" fill="#ffffff" y="-37.499999" height="449.999989" fill-opacity="1"/><g clip-path="url(#119f43589a)"><g clip-path="url(#18a63c7250)"><g clip-path="url(#3f92719184)"><g clip-path="url(#a365758e3e)"><path fill="#000000" d="M 268.472656 220.164062 L 160.476562 220.582031 L 160.058594 112.582031 L 268.058594 112.164062 Z M 166.144531 214.867188 L 262.761719 214.496094 L 262.390625 117.875 L 165.769531 118.25 Z M 166.144531 214.867188 " fill-opacity="1" fill-rule="nonzero"/></g></g></g></g><g clip-path="url(#b39a18a31d)"><g clip-path="url(#ba4be8091f)"><g clip-path="url(#fe8b67d31c)"><path stroke-linecap="butt" transform="matrix(0.749994, -0.00289771, 0.00289771, 0.749994, 160.057844, 112.580736)" fill="none" stroke-linejoin="miter" d="M 0.000992466 0.0017311 L 0.0018195 144.028864 L 144.028932 144.033245 L 144.033334 0.000924191 L 0.000992466 0.0017311 " stroke="#000000" stroke-width="60" stroke-opacity="1" stroke-miterlimit="4"/></g></g></g><g clip-path="url(#3ff3da69db)"><g clip-path="url(#44f02d3257)"><g clip-path="url(#5dcb8bddb3)"><path fill="#ffffff" d="M 222.410156 264.632812 L 115.382812 265.046875 L 114.96875 158.019531 L 221.996094 157.605469 Z M 121 259.382812 L 216.75 259.015625 L 216.378906 163.265625 L 120.628906 163.636719 Z M 121 259.382812 " fill-opacity="1" fill-rule="nonzero"/></g></g></g><g clip-path="url(#02b0c7c9c4)"><g clip-path="url(#d363ebb8e8)"><g clip-path="url(#a94adf03db)"><path stroke-linecap="butt" transform="matrix(0.749994, -0.00289771, 0.00289771, 0.749994, 114.969803, 158.018543)" fill="none" stroke-linejoin="miter" d="M -0.00140955 0.00131193 L -0.000679564 142.705527 L 142.703535 142.704797 L 142.702805 0.000581951 L -0.00140955 0.00131193 " stroke="#000000" stroke-width="60" stroke-opacity="1" stroke-miterlimit="4"/></g></g></g><path stroke-linecap="butt" transform="matrix(0.528277, -0.532375, 0.532375, 0.528277, 106.73183, 269.43971)" fill="none" stroke-linejoin="miter" d="M -0.000110977 5.00166 L 317.754696 5.002967 " stroke="#ffffff" stroke-width="10" stroke-opacity="1" stroke-miterlimit="4"/></svg>