<svg width="1279" height="307" viewBox="0 0 1279 307" fill="none" xmlns="http://www.w3.org/2000/svg">
<path d="M153.08 68.5C108.88 141.897 106.387 142.883 183 148.551C92.3334 158.901 103.44 152.494 42.0134 238.5C88.2534 157.669 99.36 155.697 13 148.551C114.24 146.91 109.56 121.977 153.08 68.5Z" fill="white" stroke="white" stroke-width="1.79819"/>
<path d="M352.452 188.203C352.452 192.584 351.896 196.539 350.784 200.07C349.673 203.535 348.202 206.608 346.371 209.289C344.54 211.904 342.415 214.16 339.996 216.056C337.577 217.887 335.027 219.391 332.347 220.567C329.731 221.744 327.051 222.627 324.305 223.215C321.624 223.738 319.074 224 316.655 224H247.611V198.501H316.459C319.924 198.501 322.539 197.618 324.305 195.853C326.07 194.088 326.952 191.538 326.952 188.203C326.626 181.403 323.193 178.004 316.655 178.004H277.131C271.508 178.004 266.735 177.023 262.813 175.061C258.89 173.1 255.686 170.648 253.201 167.706C250.782 164.764 249.017 161.593 247.905 158.193C246.859 154.793 246.336 151.622 246.336 148.68C246.336 142.991 247.35 138.219 249.377 134.361C251.403 130.438 253.953 127.267 257.026 124.848C260.099 122.429 263.434 120.696 267.03 119.65C270.626 118.538 273.993 117.983 277.131 117.983H339.8V143.482H277.327C276.02 143.482 274.974 143.645 274.189 143.972C273.47 144.234 272.914 144.626 272.522 145.149C272.195 145.607 271.999 146.13 271.933 146.718C271.868 147.241 271.835 147.764 271.835 148.287C271.901 149.334 272.097 150.151 272.424 150.739C272.751 151.328 273.143 151.753 273.601 152.014C274.124 152.276 274.679 152.439 275.268 152.505C275.922 152.505 276.543 152.505 277.131 152.505H316.655C323.193 152.505 328.751 153.681 333.327 156.035C337.904 158.389 341.598 161.364 344.41 164.96C347.221 168.491 349.248 172.348 350.49 176.533C351.798 180.717 352.452 184.607 352.452 188.203ZM474.416 153.093C474.416 156.624 473.794 160.448 472.552 164.568C471.31 168.621 469.283 172.413 466.472 175.944C463.726 179.409 460.097 182.319 455.585 184.673C451.139 187.026 445.713 188.203 439.305 188.203H393.309V163.979H439.305C442.771 163.979 445.451 162.933 447.347 160.841C449.243 158.683 450.191 156.035 450.191 152.897C450.191 149.562 449.113 146.947 446.955 145.051C444.863 143.155 442.313 142.207 439.305 142.207H393.309C389.844 142.207 387.163 143.286 385.267 145.443C383.371 147.536 382.423 150.151 382.423 153.289V188.89C382.423 192.29 383.469 194.938 385.561 196.834C387.719 198.73 390.367 199.678 393.505 199.678H439.305V224H393.309C389.778 224 385.953 223.379 381.834 222.137C377.781 220.894 373.988 218.9 370.458 216.154C366.993 213.343 364.083 209.714 361.729 205.268C359.376 200.757 358.199 195.297 358.199 188.89V153.093C358.199 149.562 358.82 145.77 360.062 141.716C361.304 137.597 363.298 133.805 366.045 130.34C368.856 126.809 372.485 123.867 376.931 121.513C381.442 119.16 386.901 117.983 393.309 117.983H439.305C442.836 117.983 446.628 118.604 450.682 119.846C454.801 121.088 458.593 123.115 462.058 125.927C465.589 128.673 468.531 132.301 470.885 136.813C473.239 141.259 474.416 146.686 474.416 153.093ZM598.439 188.203C598.439 190.622 598.145 193.172 597.556 195.853C597.033 198.534 596.183 201.214 595.006 203.895C593.83 206.51 592.293 209.027 590.397 211.447C588.566 213.866 586.311 216.023 583.63 217.919C581.015 219.75 577.974 221.221 574.509 222.333C571.044 223.444 567.121 224 562.74 224H516.744C514.325 224 511.775 223.738 509.094 223.215C506.414 222.627 503.733 221.744 501.052 220.567C498.437 219.391 495.92 217.887 493.501 216.056C491.081 214.16 488.924 211.904 487.028 209.289C485.197 206.608 483.726 203.535 482.614 200.07C481.503 196.539 480.947 192.584 480.947 188.203V73.1632H506.446V188.203C506.446 191.342 507.427 193.859 509.388 195.755C511.35 197.586 513.802 198.501 516.744 198.501H562.74C565.944 198.501 568.429 197.553 570.194 195.657C572.025 193.761 572.94 191.276 572.94 188.203V153.681C572.94 150.478 571.992 147.993 570.096 146.228C568.2 144.397 565.748 143.482 562.74 143.482H516.744V117.983H562.74C565.16 117.983 567.709 118.277 570.39 118.865C573.071 119.388 575.719 120.238 578.334 121.415C581.015 122.592 583.565 124.129 585.984 126.025C588.403 127.855 590.528 130.111 592.359 132.792C594.189 135.407 595.66 138.447 596.772 141.913C597.883 145.378 598.439 149.301 598.439 153.681V188.203ZM656.753 224H645.377C641.716 224 637.793 223.379 633.608 222.137C629.489 220.894 625.632 218.867 622.036 216.056C618.439 213.179 615.465 209.485 613.111 204.974C610.757 200.397 609.58 194.807 609.58 188.203V73.1632H635.079V188.203C635.079 191.342 636.06 193.859 638.021 195.755C639.983 197.586 642.435 198.501 645.377 198.501H656.753V224ZM789.604 117.983C786.727 126.94 783.36 135.767 779.502 144.463C775.644 153.158 771.198 161.462 766.164 169.373C761.195 177.219 755.605 184.509 749.394 191.244C743.248 197.912 736.415 203.699 728.896 208.602C721.443 213.441 713.303 217.266 704.476 220.077C695.715 222.823 686.202 224.196 675.937 224.196C674.171 224.196 672.504 223.869 670.935 223.215C669.366 222.562 667.993 221.679 666.816 220.567C665.639 219.391 664.724 218.05 664.07 216.546C663.416 214.977 663.089 213.31 663.089 211.545V117.983H688.588V197.716C694.799 197.716 700.749 196.376 706.437 193.695C712.191 191.015 717.618 187.484 722.718 183.103C727.817 178.657 732.525 173.623 736.84 168C741.221 162.377 745.111 156.624 748.511 150.739C751.911 144.789 754.788 138.97 757.141 133.282C759.56 127.594 761.358 122.494 762.535 117.983H789.604ZM885.186 143.482H840.661V224H814.867V143.482H781.718V117.983H814.867V83.3629H840.661V117.983H885.186V143.482ZM917.805 96.2105H892.306V73.1632H917.805V96.2105ZM917.805 224H892.306V117.983H917.805V224ZM1049.77 224H1024.27V165.156C1024.27 161.822 1023.69 158.847 1022.51 156.231C1021.4 153.551 1019.86 151.262 1017.9 149.366C1015.94 147.47 1013.62 146.032 1010.94 145.051C1008.32 144.005 1005.48 143.482 1002.4 143.482H957.78V224H932.281V130.634C932.281 128.869 932.608 127.234 933.261 125.731C933.915 124.161 934.831 122.821 936.007 121.71C937.184 120.533 938.557 119.617 940.127 118.963C941.696 118.31 943.363 117.983 945.128 117.983H1002.6C1005.8 117.983 1009.17 118.342 1012.7 119.062C1016.3 119.781 1019.83 120.958 1023.29 122.592C1026.82 124.161 1030.16 126.188 1033.3 128.673C1036.5 131.092 1039.31 134.067 1041.73 137.597C1044.22 141.063 1046.18 145.084 1047.61 149.66C1049.05 154.237 1049.77 159.402 1049.77 165.156V224ZM1177.42 234.2C1177.42 238.58 1176.87 242.503 1175.76 245.968C1174.65 249.499 1173.17 252.572 1171.34 255.187C1169.51 257.868 1167.39 260.124 1164.97 261.954C1162.55 263.85 1160 265.387 1157.32 266.564C1154.7 267.741 1152.02 268.591 1149.28 269.114C1146.6 269.702 1144.05 269.996 1141.63 269.996H1095.63V244.497H1141.63C1145.09 244.497 1147.68 243.615 1149.38 241.849C1151.08 240.084 1151.93 237.534 1151.93 234.2V153.681C1151.93 150.347 1151.08 147.83 1149.38 146.13C1147.68 144.364 1145.09 143.482 1141.63 143.482H1095.63C1092.49 143.482 1090.01 144.463 1088.18 146.424C1086.35 148.32 1085.43 150.739 1085.43 153.681V188.203C1085.43 191.538 1086.31 194.088 1088.08 195.853C1089.85 197.618 1092.43 198.501 1095.83 198.501H1141.63V224H1095.63C1093.21 224 1090.66 223.738 1087.98 223.215C1085.3 222.627 1082.62 221.744 1079.94 220.567C1077.32 219.391 1074.81 217.887 1072.39 216.056C1069.97 214.16 1067.84 211.904 1066.01 209.289C1064.18 206.608 1062.71 203.535 1061.6 200.07C1060.49 196.539 1059.93 192.584 1059.93 188.203V153.681C1059.93 151.262 1060.19 148.712 1060.72 146.032C1061.31 143.351 1062.19 140.703 1063.37 138.088C1064.54 135.407 1066.05 132.857 1067.88 130.438C1069.77 128.019 1072.03 125.894 1074.64 124.063C1077.32 122.233 1080.4 120.761 1083.86 119.65C1087.33 118.538 1091.25 117.983 1095.63 117.983H1141.63C1144.05 117.983 1146.6 118.277 1149.28 118.865C1152.02 119.388 1154.7 120.238 1157.32 121.415C1160 122.592 1162.55 124.129 1164.97 126.025C1167.39 127.855 1169.51 130.111 1171.34 132.792C1173.17 135.407 1174.65 138.447 1175.76 141.913C1176.87 145.378 1177.42 149.301 1177.42 153.681V234.2Z" fill="white"/>
</svg>
